<?xml version="1.0" encoding="UTF-8"?>
<svg enable-background="new 0 0 496.096 496.096" version="1.1" viewBox="0 0 496.1 496.1" xml:space="preserve" xmlns="http://www.w3.org/2000/svg">
		<path d="m259.41 248 234.34-234.34c3.123-3.124 3.123-8.188 0-11.312-3.124-3.123-8.188-3.123-11.312 0l-234.34 234.34-234.34-234.34c-3.178-3.069-8.242-2.981-11.312 0.197-2.994 3.1-2.994 8.015 0 11.115l234.34 234.34-234.34 234.34c-3.178 3.07-3.266 8.134-0.196 11.312s8.134 3.266 11.312 0.196c0.067-0.064 0.132-0.13 0.196-0.196l234.34-234.34 234.34 234.34c3.178 3.07 8.242 2.982 11.312-0.196 2.995-3.1 2.995-8.016 0-11.116l-234.34-234.34z"/>
</svg>
